# xmcd CD database file
#
# Track frame offsets:
#	183
#	13725
#	27800
#	42668
#	56735
#	70640
#	84238
#	96313
#	108408
#	122288
#	138010
#	152475
#	167683
#	197823
#	212873
#	223445
#	237355
#	250378
#	261443
#	273553
#
# Disc length: 4033 seconds
#
# Revision: 0
# Processed by: cddbd v1.4PL0 Copyright (c) Steve Scherf et al.
# Submitted via: CDex 1.50Beta7
#
DISCID=240fbf14
DTITLE=Larry Adler - The Best Of Larry Adler
DYEAR=1996
DGENRE=Jazz
TTITLE0=Genevieve Waltz
TTITLE1=Love Theme And Blues
TTITLE2=Caravan
TTITLE3=Stormy Weather
TTITLE4=I've Got My Love To Keep Me Warm/Slumming On Park Avenue
TTITLE5=Night And Day/Tiger Rag
TTITLE6=It Ain't Necessarily So
TTITLE7=The Continental
TTITLE8=Smoke Gets In Your Eyes
TTITLE9=I've Got You Under My Skin
TTITLE10=St. Louis Blues
TTITLE11=Shadow Waltz
TTITLE12=Romance For Harmonica And Orchestra
TTITLE13=Why Was I Born
TTITLE14=Pam-Poo-Day
TTITLE15=Body And Soul
TTITLE16=Malaguena
TTITLE17=Theme On Four Notes
TTITLE18=Weeping Willows
TTITLE19=Rhapsody In Blue
EXTD=YEAR: 1996
EXTT0=
EXTT1=
EXTT2=
EXTT3=
EXTT4=
EXTT5=
EXTT6=
EXTT7=
EXTT8=
EXTT9=
EXTT10=
EXTT11=
EXTT12=
EXTT13=
EXTT14=
EXTT15=
EXTT16=
EXTT17=
EXTT18=
EXTT19=
PLAYORDER=
